<?xml version="1.0" standalone="no"?>
<!DOCTYPE svg PUBLIC "-//W3C//DTD SVG 20010904//EN"
 "http://www.w3.org/TR/2001/REC-SVG-20010904/DTD/svg10.dtd">
<svg version="1.0" xmlns="http://www.w3.org/2000/svg"
 width="1900.000000pt" height="1900.000000pt" viewBox="0 0 1900.000000 1900.000000"
 preserveAspectRatio="xMidYMid meet">
<metadata>
Created by potrace 1.14, written by Peter Selinger 2001-2017
</metadata>
<g transform="translate(0.000000,1900.000000) scale(0.100000,-0.100000)"
fill="#000000" stroke="none">
<path d="M11201 14125 c-1 -5 -25 -10 -54 -11 -78 -1 -258 -15 -382 -30 -22
-2 -59 -6 -81 -9 -23 -2 -55 -7 -70 -9 -16 -3 -54 -8 -84 -12 -30 -3 -64 -8
-75 -11 -52 -11 -72 -15 -95 -18 -14 -2 -25 -4 -25 -5 0 -2 -14 -5 -60 -13
-29 -6 -57 -12 -102 -22 -13 -3 -31 -7 -41 -9 -9 -2 -37 -9 -62 -16 -25 -7
-52 -13 -60 -15 -12 -2 -71 -18 -115 -31 -5 -2 -17 -5 -25 -7 -27 -7 -105 -28
-118 -32 -7 -3 -14 -5 -17 -5 -5 0 -101 -34 -135 -47 -8 -4 -18 -6 -22 -5 -3
1 -39 -12 -80 -29 -40 -16 -74 -30 -76 -29 -1 0 -18 -7 -38 -15 -20 -8 -39
-15 -41 -15 -3 0 -19 -6 -36 -14 -63 -28 -132 -57 -135 -56 -1 0 -15 -6 -30
-14 -15 -8 -54 -27 -87 -42 -33 -15 -63 -32 -67 -38 -4 -6 -8 -8 -8 -3 0 4
-22 -4 -50 -18 -27 -14 -53 -25 -56 -24 -4 0 -10 -3 -13 -8 -3 -4 -40 -25 -81
-47 -110 -56 -135 -70 -138 -78 -2 -5 -12 -8 -22 -8 -9 0 -23 -7 -30 -15 -7
-8 -18 -15 -26 -15 -7 0 -17 -6 -21 -13 -4 -7 -34 -28 -65 -46 -32 -18 -58
-37 -58 -42 0 -6 -4 -8 -8 -5 -5 3 -18 -4 -30 -14 -12 -11 -24 -20 -27 -20 -9
0 -79 -53 -83 -63 -2 -4 -8 -5 -13 -1 -5 3 -9 1 -9 -4 0 -6 -19 -21 -42 -35
-24 -14 -58 -39 -75 -56 -18 -16 -33 -28 -33 -25 0 4 -133 -99 -150 -116 -3
-3 -32 -27 -65 -55 -82 -68 -157 -139 -290 -275 -135 -137 -195 -201 -195
-206 0 -2 -12 -17 -27 -33 -37 -39 -72 -81 -68 -81 1 0 -15 -19 -36 -42 -22
-24 -39 -49 -39 -57 0 -8 -3 -12 -6 -8 -7 6 -114 -138 -114 -153 0 -4 -4 -10
-8 -12 -12 -4 -92 -125 -92 -137 0 -6 -3 -11 -8 -11 -4 0 -16 -17 -27 -37 -11
-21 -23 -40 -27 -43 -3 -3 -8 -12 -10 -20 -2 -8 -12 -23 -22 -32 -10 -10 -16
-18 -12 -18 4 0 -2 -13 -13 -29 -12 -16 -21 -34 -21 -39 0 -6 -6 -17 -12 -24
-7 -7 -24 -36 -38 -63 -14 -28 -28 -51 -32 -53 -5 -2 -8 -12 -8 -23 0 -10 -4
-19 -10 -19 -5 0 -10 -9 -10 -20 0 -11 -4 -20 -10 -20 -5 0 -10 -9 -10 -20 0
-11 -4 -20 -10 -20 -5 0 -9 -3 -8 -7 1 -5 -6 -26 -16 -48 -67 -147 -178 -442
-201 -535 -2 -8 -10 -36 -18 -62 -8 -27 -13 -48 -10 -48 3 0 0 -7 -7 -15 -7
-8 -9 -15 -5 -15 4 0 2 -7 -5 -15 -7 -8 -10 -15 -7 -15 3 0 1 -15 -4 -32 -6
-18 -12 -44 -15 -58 -3 -14 -7 -32 -9 -40 -2 -8 -7 -28 -10 -45 -2 -16 -7 -40
-9 -52 -5 -23 -18 -106 -22 -138 -1 -11 -3 -20 -4 -20 -2 0 -10 -62 -15 -115
-2 -25 -4 -45 -5 -45 -2 0 -7 -47 -11 -102 -1 -24 -5 -47 -8 -52 -5 -7 -179
38 -246 63 -11 4 -45 17 -75 29 -108 40 -286 124 -374 175 -67 39 -308 193
-316 202 -3 4 -32 26 -65 50 -51 37 -220 173 -235 190 -3 3 -39 34 -80 70 -95
82 -230 207 -376 346 -50 49 -135 127 -210 194 -33 30 -77 67 -249 209 -80 66
-280 190 -372 232 -26 12 -68 30 -92 41 -80 36 -238 83 -311 93 -135 19 -249
22 -355 11 -132 -15 -372 -73 -465 -113 -19 -9 -51 -22 -70 -30 -245 -105
-503 -279 -700 -473 -263 -260 -446 -558 -534 -867 -50 -176 -65 -291 -61
-493 3 -172 6 -212 20 -330 24 -192 106 -452 193 -610 59 -107 201 -319 243
-363 8 -8 34 -39 59 -68 25 -30 88 -96 140 -149 572 -571 1522 -1105 2320
-1305 74 -18 149 -36 165 -38 17 -3 111 -23 210 -45 316 -71 597 -120 780
-137 39 -4 77 -8 85 -10 8 -2 49 -7 90 -10 41 -3 82 -8 90 -10 8 -2 49 -7 90
-10 41 -4 89 -9 105 -11 104 -15 834 -23 1052 -11 72 4 133 4 135 0 5 -13 60
-48 104 -67 l41 -18 -18 -76 c-10 -42 -21 -92 -24 -111 -12 -77 -16 -98 -25
-146 -6 -27 -12 -60 -15 -73 -9 -48 -18 -59 -131 -152 -133 -110 -293 -263
-351 -335 -154 -193 -237 -399 -235 -580 2 -154 71 -264 202 -322 45 -20 72
-20 1421 -27 l1087 -6 24 33 c58 80 162 355 287 757 11 36 22 76 24 90 2 14 7
32 10 40 12 32 69 314 82 410 2 14 6 36 9 50 3 14 7 41 10 60 2 19 9 69 15
110 14 101 27 241 36 375 6 82 6 426 1 470 -2 17 -7 62 -11 101 l-7 71 30 11
c17 6 33 8 36 5 3 -4 6 -1 6 6 0 7 4 10 9 7 4 -3 41 4 82 15 41 11 85 22 99
23 14 2 43 8 65 14 22 6 58 13 80 17 22 3 56 10 75 15 19 5 53 12 75 15 22 3
63 10 90 16 80 15 87 16 140 24 67 10 102 14 150 20 22 2 51 7 65 10 26 5 118
15 185 20 22 2 65 6 95 10 30 4 78 8 105 10 201 13 303 18 387 19 54 0 98 3
98 6 0 3 16 5 35 5 19 0 35 -3 35 -7 0 -4 13 -3 29 2 16 4 32 6 35 3 7 -8 135
-8 142 0 3 3 18 2 34 -3 16 -5 32 -4 38 2 6 6 12 6 16 -1 5 -7 15 -7 31 -1 14
5 25 6 25 2 0 -6 55 -7 70 -2 3 1 10 1 15 0 6 -1 46 -4 90 -5 140 -6 309 -15
350 -20 62 -8 184 -17 242 -19 29 0 53 -4 53 -8 0 -4 10 -7 23 -7 37 1 106 -8
312 -40 194 -31 195 -32 270 -48 39 -8 84 -17 100 -20 17 -2 68 -14 115 -25
47 -11 98 -22 113 -25 16 -2 49 -11 75 -18 25 -8 49 -12 54 -9 4 3 8 0 8 -6 0
-7 6 -10 14 -7 8 3 17 3 21 -1 6 -7 10 -8 36 -11 5 0 8 -5 5 -10 -27 -43 -28
-682 -2 -841 3 -14 7 -55 11 -92 3 -37 8 -79 11 -93 2 -14 6 -37 8 -52 2 -16
7 -48 10 -73 7 -43 5 -47 -40 -95 -117 -125 -262 -400 -339 -642 -69 -220 -82
-312 -60 -438 15 -80 53 -137 123 -183 60 -39 90 -40 1224 -37 1649 4 1465 1
1492 30 13 14 26 40 29 58 3 18 12 64 22 102 36 156 48 272 48 480 0 133 -10
393 -18 455 -2 19 -7 55 -10 80 -12 101 -17 130 -41 240 -14 63 -28 129 -30
145 -3 17 -12 64 -21 105 -29 141 -31 126 23 151 27 13 51 27 52 31 2 4 8 8
12 8 5 0 21 11 36 25 15 14 24 25 20 25 -4 0 7 14 24 30 23 22 40 30 67 30 44
0 258 43 378 77 321 89 579 199 791 339 322 213 438 460 326 697 -46 99 -154
198 -272 249 -123 54 -322 113 -455 134 -22 3 -43 8 -46 10 -3 2 -19 5 -35 8
-204 33 -347 56 -384 61 -145 18 -298 54 -328 78 -9 7 -9 13 -1 23 6 8 8 14 4
14 -4 0 -2 7 5 15 7 8 10 15 7 15 -3 0 -1 15 4 33 6 17 12 39 14 47 2 8 4 15
5 15 2 0 16 61 25 110 2 11 9 43 15 70 17 81 22 108 25 140 2 17 6 41 9 55 8
40 17 114 32 275 11 115 11 556 1 655 -5 41 -10 93 -12 115 -2 22 -6 56 -9 75
-3 19 -8 58 -11 85 -3 28 -8 59 -10 70 -5 22 -14 66 -20 105 -2 14 -7 36 -10
50 -3 14 -8 43 -11 65 -3 22 -9 44 -13 50 -5 5 -9 17 -9 25 0 18 -5 37 -27
105 -8 28 -15 50 -14 50 3 0 -20 75 -31 100 -4 11 -14 40 -21 65 -7 25 -15 50
-18 55 -3 6 -6 12 -6 15 -2 11 -29 87 -43 120 -9 19 -17 38 -18 43 -1 4 -3 9
-4 12 -1 3 -3 8 -5 13 -5 17 -37 89 -51 115 -8 15 -13 27 -10 27 4 0 -104 214
-161 316 -66 121 -162 275 -178 286 -5 4 -6 8 -2 8 8 0 -2 13 -35 51 -10 10
-17 20 -16 22 2 2 -17 30 -102 151 -8 11 -29 37 -47 56 -18 19 -33 39 -33 43
0 4 -10 18 -22 31 -13 13 -39 42 -58 65 -111 135 -503 531 -526 531 -2 0 -12
8 -23 18 -25 24 -72 62 -111 92 -18 14 -39 31 -46 38 -7 6 -17 12 -23 12 -6 0
-11 4 -11 8 0 7 -114 93 -168 127 -9 6 -21 15 -27 20 -7 6 -50 35 -96 65 -46
30 -85 58 -87 63 -2 4 -12 7 -22 7 -10 0 -20 7 -24 15 -3 8 -9 15 -14 15 -5 0
-49 24 -98 53 -49 29 -125 71 -169 92 -44 22 -82 42 -85 45 -10 10 -226 110
-237 110 -7 0 -13 3 -13 8 0 4 -28 18 -62 31 -35 13 -83 33 -108 43 -61 27
-75 33 -145 58 -33 13 -69 26 -80 31 -17 6 -54 19 -75 24 -3 1 -12 4 -20 8
-20 8 -151 48 -173 52 -10 2 -32 9 -50 14 -80 26 -135 41 -166 46 -19 3 -38 8
-43 11 -5 3 -18 7 -31 10 -32 6 -56 11 -112 24 -27 6 -61 14 -75 16 -14 3 -33
7 -42 10 -10 3 -28 7 -40 9 -52 9 -226 37 -258 41 -82 11 -98 13 -155 18 -33
4 -78 9 -101 12 -168 21 -621 36 -716 24 -30 -4 -49 -2 -52 4 -3 7 -5 7 -5 1z"/>
</g>
</svg>
